Coordinates
version=1
nRows=22
nColumns=32
inDegrees=yes

Units are S.I. units (second, meters, Newtons, ...)
If the header above contains a line with 'inDegrees', this indicates whether rotational values are in degrees (yes) or radians (no).

endheader
time	pelvis_tilt	pelvis_list	pelvis_rotation	pelvis_tx	pelvis_ty	pelvis_tz	hip_flexion_r	hip_adduction_r	hip_rotation_r	knee_angle_r	knee_adduction_r	med_cond_adduction_r	lat_cond_adduction_r	patella_r_constrained_knee_angle	ankle_angle_r	subtalar_angle_r	mtp_angle_r	hip_flexion_l	hip_adduction_l	hip_rotation_l	knee_angle_l	knee_adduction_l	med_cond_adduction_l	lat_cond_adduction_l	patella_l_constrained_knee_angle	ankle_angle_l	subtalar_angle_l	mtp_angle_l	lumbar_extension	lumbar_bending	lumbar_rotation
      4.52500000	      2.06792685	     -9.23345598	     90.34773145	      0.23741827	      0.86107035	     -0.42050920	     26.48414744	      5.42664523	     29.26277345	    -11.73441495	      0.00000000	      0.00000000	     -0.00000000	     -0.20480418	    -10.06075138	    -15.39102971	     -0.00000000	     -0.46989717	     -3.55780155	     -7.18815011	    -34.06358688	      0.00000000	      0.00000000	     -0.00000000	     -0.59452175	    -20.60271407	      0.65123851	      0.00000000	      0.00000000	      0.00000000	      0.00000000
      4.53000000	      1.67333030	     -9.15349942	     90.04180096	      0.23781735	      0.86239659	     -0.42728208	     26.09873839	      5.11839910	     28.58357779	    -12.07753917	      0.00000000	     -0.00000000	      0.00000000	     -0.21079282	     -8.97693784	    -14.09079201	     -0.00000000	      0.01571738	     -3.12549703	     -7.39376368	    -35.05126213	      0.00000000	     -0.00000000	      0.00000000	     -0.61175993	    -21.94205091	     -0.72144741	     -0.00000000	      0.00000000	     -0.00000000	      0.00000000
      4.53500000	      1.39026089	     -9.02751378	     89.80285618	      0.23821305	      0.86373451	     -0.43398477	     25.66414277	      4.88073222	     27.74779270	    -12.39723219	      0.00000000	      0.00000000	     -0.00000000	     -0.21637252	     -7.96558672	    -12.79190061	     -0.00000000	      0.51207422	     -2.84386551	     -7.61443566	    -36.12464794	      0.00000000	     -0.00000000	      0.00000000	     -0.63049405	    -22.83674464	     -1.85388562	     -0.00000000	      0.00000000	     -0.00000000	      0.00000000
      4.54000000	      1.01074569	     -8.98604939	     89.56326686	      0.23845181	      0.86502348	     -0.44056836	     25.34407667	      4.51285226	     26.83068191	    -12.75162449	      0.00000000	      0.00000000	     -0.00000000	     -0.22255783	     -6.84363126	    -11.17296492	      0.00000000	      1.13330827	     -2.41604682	     -7.76379821	    -37.16477629	     -0.00000000	      0.00000000	     -0.00000000	     -0.64864771	    -23.67129503	     -3.19611342	     -0.00000000	      0.00000000	     -0.00000000	      0.00000000
      4.54500000	      0.64449953	     -8.93663552	     89.31401172	      0.23870638	      0.86630318	     -0.44709154	     25.01587134	      4.14664867	     25.87731272	    -13.08534376	     -0.00000000	     -0.00000000	      0.00000000	     -0.22838233	     -5.81903198	     -9.61090536	      0.00000000	      1.77621443	     -2.01135814	     -7.93774417	    -38.22757215	     -0.00000000	      0.00000000	     -0.00000000	     -0.66719700	    -24.11330691	     -4.31291219	      0.00000000	     -0.00000000	     -0.00000000	      0.00000000
      4.55000000	      0.25778441	     -8.89706538	     89.09743817	      0.23878471	      0.86759913	     -0.45349995	     24.71961881	      3.70629244	     24.77557934	    -13.43750656	     -0.00000000	      0.00000000	     -0.00000000	     -0.23452873	     -4.72748171	     -7.68176283	     -0.00000000	      2.46748256	     -1.55658316	     -8.06909527	    -39.26145124	     -0.00000000	      0.00000000	     -0.00000000	     -0.68524159	    -24.45178268	     -5.59164714	      0.00000000	     -0.00000000	     -0.00000000	      0.00000000
      4.55500000	     -0.19988271	     -8.93159512	     88.84117829	      0.23888872	      0.86879025	     -0.45977916	     24.50889515	      3.19556730	     23.68989943	    -13.75753450	     -0.00000000	     -0.00000000	      0.00000000	     -0.24011427	     -3.80186437	     -5.94846457	     -0.00000000	      3.26746375	     -1.02964236	     -8.22326244	    -40.29514576	      0.00000000	     -0.00000000	      0.00000000	     -0.70328297	    -24.42222637	     -6.59388746	      0.00000000	     -0.00000000	     -0.00000000	      0.00000000
      4.56000000	     -0.66024347	     -8.99061830	     88.61431843	      0.23884684	      0.86996348	     -0.46598401	     24.34799270	      2.63666090	     22.45522544	    -14.12049469	      0.00000000	     -0.00000000	      0.00000000	     -0.24644912	     -2.79388027	     -3.95899134	      0.00000000	      4.10986024	     -0.46570571	     -8.32307720	    -41.26886914	      0.00000000	      0.00000000	     -0.00000000	     -0.72027765	    -24.23799104	     -7.72442840	      0.00000000	     -0.00000000	     -0.00000000	      0.00000000
      4.56500000	     -1.08070551	     -8.97112230	     88.40460011	      0.23878601	      0.87121581	     -0.47215549	     24.08774909	      2.09609020	     21.15082426	    -14.43585594	      0.00000000	      0.00000000	     -0.00000000	     -0.25195322	     -1.90969081	     -2.03560311	      0.00000000	      4.89538740	      0.04364961	     -8.44536024	    -42.23392865	      0.00000000	     -0.00000000	      0.00000000	     -0.73712111	    -23.74955865	     -8.58906236	     -0.00000000	     -0.00000000	     -0.00000000	      0.00000000
      4.57000000	     -1.60112138	     -9.10982431	     88.20249422	      0.23853380	      0.87230605	     -0.47823589	     24.02799319	      1.41056255	     19.73470727	    -14.79134669	      0.00000000	      0.00000000	     -0.00000000	     -0.25815770	     -0.99398988	      0.14166417	     -0.00000000	      5.86014322	      0.70414379	     -8.49635055	    -43.08724201	     -0.00000000	     -0.00000000	      0.00000000	     -0.75201424	    -23.26451155	     -9.60963625	     -0.00000000	     -0.00000000	      0.00000000	      0.00000000
      4.57500000	     -2.12818315	     -9.21915632	     88.03959508	      0.23823741	      0.87342368	     -0.48413770	     23.94792712	      0.68045263	     18.19832989	    -15.12965797	     -0.00000000	      0.00000000	     -0.00000000	     -0.26406235	     -0.13095924	      2.38734685	     -0.00000000	      6.83297883	      1.37711138	     -8.52871409	    -43.91621782	     -0.00000000	     -0.00000000	      0.00000000	     -0.76648260	    -22.67164783	    -10.60766470	      0.00000000	     -0.00000000	      0.00000000	      0.00000000
      4.58000000	     -2.60372179	     -9.30537335	     87.84631019	      0.23797936	      0.87449810	     -0.49006427	     23.83823180	      0.00545755	     16.62519141	    -15.46660291	     -0.00000000	     -0.00000000	      0.00000000	     -0.26994314	      0.62132773	      4.55438306	      0.00000000	      7.79063753	      1.96969912	     -8.61744731	    -44.73025839	     -0.00000000	      0.00000000	     -0.00000000	     -0.78069028	    -21.73513111	    -11.13884916	      0.00000000	     -0.00000000	      0.00000000	      0.00000000
      4.58500000	     -3.15480998	     -9.41854159	     87.63611390	      0.23759497	      0.87556990	     -0.49596053	     23.77502298	     -0.77966751	     14.98729192	    -15.81827645	      0.00000000	     -0.00000000	      0.00000000	     -0.27608101	      1.39348947	      6.88550654	      0.00000000	      8.75033196	      2.67746686	     -8.68994094	    -45.36707970	      0.00000000	     -0.00000000	      0.00000000	     -0.79180491	    -20.85272517	    -11.78852685	      0.00000000	     -0.00000000	      0.00000000	      0.00000000
      4.59000000	     -3.67779189	     -9.51033987	     87.48056541	      0.23715850	      0.87665408	     -0.50181341	     23.67325767	     -1.57231286	     13.22479413	    -16.14634599	     -0.00000000	     -0.00000000	      0.00000000	     -0.28180690	      2.07462940	      9.15739587	      0.00000000	      9.70616175	      3.35559767	     -8.73110031	    -45.95239722	     -0.00000000	     -0.00000000	      0.00000000	     -0.80202063	    -19.91578186	    -12.32882094	     -0.00000000	     -0.00000000	      0.00000000	      0.00000000
      4.59500000	     -4.22923068	     -9.64915231	     87.32097738	      0.23667363	      0.87763818	     -0.50756624	     23.63456670	     -2.41088105	     11.42564099	    -16.47646295	     -0.00000000	     -0.00000000	      0.00000000	     -0.28756853	      2.69590082	     11.44171921	     -0.00000000	     10.72612437	      4.06709186	     -8.76993677	    -46.46229819	     -0.00000000	      0.00000000	     -0.00000000	     -0.81092008	    -18.98916637	    -12.81209723	      0.00000000	     -0.00000000	      0.00000000	      0.00000000
      4.60000000	     -4.71245768	     -9.66985319	     87.17648556	      0.23618694	      0.87875057	     -0.51336368	     23.44237086	     -3.20100615	      9.53039109	    -16.77633332	     -0.00000000	     -0.00000000	      0.00000000	     -0.29280225	      3.19200853	     13.61468947	      0.00000000	     11.60219272	      4.70353095	     -8.81693364	    -46.87437168	      0.00000000	     -0.00000000	      0.00000000	     -0.81811212	    -18.02441749	    -13.15767328	      0.00000000	     -0.00000000	      0.00000000	      0.00000000
      4.60500000	     -5.21363950	     -9.73347450	     87.05859353	      0.23569617	      0.87978148	     -0.51912827	     23.29058014	     -4.02054123	      7.60823465	    -17.07670241	     -0.00000000	     -0.00000000	      0.00000000	     -0.29804468	      3.65128987	     15.62562692	     -0.00000000	     12.52246274	      5.35641926	     -8.84728762	    -47.19805746	      0.00000000	     -0.00000000	      0.00000000	     -0.82376150	    -17.06353301	    -13.42265508	     -0.00000000	     -0.00000000	      0.00000000	      0.00000000
      4.61000000	     -5.68571197	     -9.77329613	     86.96240990	      0.23523276	      0.88081043	     -0.52487400	     23.09387103	     -4.80867742	      5.67079514	    -17.35657288	      0.00000000	     -0.00000000	      0.00000000	     -0.30292934	      4.01028068	     17.28859815	     -0.00000000	     13.41084462	      5.97406987	     -8.86521589	    -47.43422565	     -0.00000000	     -0.00000000	      0.00000000	     -0.82788342	    -16.13008115	    -13.62365179	      0.00000000	     -0.00000000	      0.00000000	      0.00000000
      4.61500000	     -6.12447793	     -9.80136563	     86.88011806	      0.23486903	      0.88182234	     -0.53060142	     22.86557011	     -5.53843374	      3.78273188	    -17.61378472	      0.00000000	     -0.00000000	      0.00000000	     -0.30741854	      4.24355003	     18.37535790	      0.00000000	     14.27859043	      6.53733536	     -8.89095108	    -47.59261840	      0.00000000	     -0.00000000	      0.00000000	     -0.83064789	    -15.21450923	    -13.69865038	     -0.00000000	     -0.00000000	     -0.00000000	      0.00000000
      4.62000000	     -6.52441738	     -9.80889932	     86.82640864	      0.23461424	      0.88283705	     -0.53630780	     22.59103913	     -6.20452625	      1.91074899	    -17.85244371	      0.00000000	      0.00000000	     -0.00000000	     -0.31158392	      4.39797429	     18.96317543	      0.00000000	     15.10798424	      7.04942602	     -8.89384349	    -47.65514973	     -0.00000000	      0.00000000	     -0.00000000	     -0.83173927	    -14.32423064	    -13.73902762	     -0.00000000	     -0.00000000	     -0.00000000	      0.00000000
      4.62500000	     -6.88097862	     -9.82180424	     86.80002395	      0.23434894	      0.88379862	     -0.54198825	     22.30008969	     -6.82364605	      0.03729620	    -18.06571701	     -0.00000000	     -0.00000000	      0.00000000	     -0.31530624	      4.48049809	     19.26349403	     -0.00000000	     15.94025699	      7.51823588	     -8.86669584	    -47.65662051	     -0.00000000	     -0.00000000	      0.00000000	     -0.83176494	    -13.50269674	    -13.76597702	     -0.00000000	     -0.00000000	      0.00000000	      0.00000000
      4.63000000	     -7.21607867	     -9.82725718	     86.76960888	      0.23415560	      0.88471226	     -0.54762583	     21.99971842	     -7.40925195	     -1.81943499	    -18.28314791	     -0.00000000	      0.00000000	     -0.00000000	     -0.31910113	      4.53150123	     19.43376124	     -0.00000000	     16.74795617	      7.94900214	     -8.86034470	    -47.56841508	     -0.00000000	     -0.00000000	     -0.00000000	     -0.83022546	    -12.72318961	    -13.75252222	     -0.00000000	     -0.00000000	     -0.00000000	      0.00000000
